<svg width="1950" height="492" viewBox="0 0 1950 492" fill="none" xmlns="http://www.w3.org/2000/svg">
<rect y="113" width="55" height="109" fill="white"/>
<rect x="55" y="222" width="54" height="154" transform="rotate(-90 55 222)" fill="white"/>
<rect x="209" y="113" width="55" height="55" fill="white"/>
<rect x="264" y="379" width="55" height="109" transform="rotate(-180 264 379)" fill="white"/>
<rect x="209" y="270" width="54" height="154" transform="rotate(90 209 270)" fill="white"/>
<rect y="324" width="55" height="55" fill="white"/>
<path d="M398.7 232.1H541.5V261.2H398.7V232.1ZM536.7 149.6H570.6V344H536.7V149.6ZM368.4 149.6H402.6V344H368.4V149.6ZM590.123 194.6H625.823L686.123 338L657.323 344L590.123 194.6ZM756.623 194.6L660.623 404H625.523L666.623 322.1L720.923 194.6H756.623ZM867.577 347.3C855.377 347.3 844.977 344.9 836.377 340.1C827.977 335.3 821.177 329 815.977 321.2C810.977 313.2 807.277 304.7 804.877 295.7C802.477 286.5 801.277 277.8 801.277 269.6C801.277 258.6 802.377 248.4 804.577 239C806.977 229.6 810.677 221.4 815.677 214.4C820.877 207.2 827.677 201.6 836.077 197.6C844.677 193.4 855.177 191.3 867.577 191.3C881.577 191.3 894.177 194.7 905.377 201.5C916.577 208.1 925.477 217.3 932.077 229.1C938.677 240.7 941.977 254.2 941.977 269.6C941.977 285 938.577 298.6 931.777 310.4C925.177 322 916.277 331.1 905.077 337.7C893.877 344.1 881.377 347.3 867.577 347.3ZM857.677 319.7C867.677 319.7 876.477 317.6 884.077 313.4C891.677 309.2 897.577 303.3 901.777 295.7C905.977 288.1 908.077 279.4 908.077 269.6C908.077 254.6 903.677 242.4 894.877 233C886.077 223.4 873.677 218.6 857.677 218.6C847.677 218.6 838.677 220.7 830.677 224.9C822.677 229.1 816.377 235 811.777 242.6C807.177 250 804.877 259 804.877 269.6C804.877 279.2 806.977 287.8 811.177 295.4C815.377 303 821.377 309 829.177 313.4C836.977 317.6 846.477 319.7 857.677 319.7ZM771.577 194.6H803.377L804.877 231.2V404H771.577V194.6ZM1087.47 294.8H1119.57C1117.97 305 1113.97 314.1 1107.57 322.1C1101.37 329.9 1092.87 336.1 1082.07 340.7C1071.27 345.1 1058.37 347.3 1043.37 347.3C1026.37 347.3 1011.17 344.2 997.774 338C984.374 331.6 973.874 322.6 966.274 311C958.674 299.4 954.874 285.6 954.874 269.6C954.874 253.8 958.574 240 965.974 228.2C973.374 216.4 983.574 207.3 996.574 200.9C1009.77 194.5 1024.97 191.3 1042.17 191.3C1059.97 191.3 1074.77 194.5 1086.57 200.9C1098.57 207.1 1107.47 216.5 1113.27 229.1C1119.07 241.5 1121.47 257.2 1120.47 276.2H988.774C989.774 284.6 992.474 292.2 996.874 299C1001.47 305.6 1007.67 310.8 1015.47 314.6C1023.27 318.2 1032.37 320 1042.77 320C1054.37 320 1064.07 317.7 1071.87 313.1C1079.87 308.5 1085.07 302.4 1087.47 294.8ZM1041.27 218.3C1027.67 218.3 1016.47 221.7 1007.67 228.5C998.874 235.1 993.174 243.6 990.574 254H1086.87C1086.07 242.8 1081.57 234.1 1073.37 227.9C1065.17 221.5 1054.47 218.3 1041.27 218.3ZM1141.17 194.6H1174.47V344H1141.17V194.6ZM1228.47 223.1C1217.67 223.1 1208.37 225.4 1200.57 230C1192.97 234.6 1186.87 240.2 1182.27 246.8C1177.67 253.4 1174.47 259.8 1172.67 266L1172.37 249.2C1172.57 247 1173.27 243.7 1174.47 239.3C1175.67 234.7 1177.47 229.7 1179.87 224.3C1182.47 218.9 1185.87 213.7 1190.07 208.7C1194.47 203.5 1199.77 199.3 1205.97 196.1C1212.37 192.9 1219.87 191.3 1228.47 191.3V223.1ZM1244.67 194.6H1277.97V344H1244.67V194.6ZM1340.97 191.3C1349.57 191.3 1357.47 192.5 1364.67 194.9C1372.07 197.3 1378.37 201 1383.57 206C1388.97 210.8 1393.07 216.8 1395.87 224C1398.87 231.2 1400.37 239.7 1400.37 249.5V344H1367.07V256.1C1367.07 243.9 1364.07 234.9 1358.07 229.1C1352.27 223.1 1343.07 220.1 1330.47 220.1C1320.87 220.1 1312.07 222.2 1304.07 226.4C1296.27 230.4 1289.87 235.7 1284.87 242.3C1279.87 248.7 1276.97 255.8 1276.17 263.6L1275.87 247.4C1276.87 240 1279.07 233 1282.47 226.4C1285.87 219.6 1290.37 213.6 1295.97 208.4C1301.57 203 1308.17 198.8 1315.77 195.8C1323.37 192.8 1331.77 191.3 1340.97 191.3ZM1460.07 191.3C1468.87 191.3 1476.87 192.5 1484.07 194.9C1491.27 197.3 1497.47 201 1502.67 206C1508.07 210.8 1512.27 216.8 1515.27 224C1518.27 231.2 1519.77 239.7 1519.77 249.5V344H1486.17V256.1C1486.17 243.9 1483.17 234.9 1477.17 229.1C1471.37 223.1 1462.17 220.1 1449.57 220.1C1439.97 220.1 1431.17 222.2 1423.17 226.4C1415.37 230.4 1408.97 235.7 1403.97 242.3C1399.17 248.7 1396.37 255.8 1395.57 263.6L1394.97 246.8C1395.97 239.6 1398.27 232.7 1401.87 226.1C1405.47 219.3 1410.07 213.3 1415.67 208.1C1421.27 202.9 1427.77 198.8 1435.17 195.8C1442.77 192.8 1451.07 191.3 1460.07 191.3ZM1586.39 131.3V163.4H1546.49V131.3H1586.39ZM1549.49 194.6H1583.09V344H1549.49V194.6ZM1680.58 347.3C1666.78 347.3 1654.18 344 1642.78 337.4C1631.58 330.8 1622.68 321.7 1616.08 310.1C1609.48 298.3 1606.18 284.8 1606.18 269.6C1606.18 254 1609.38 240.4 1615.78 228.8C1622.38 217 1631.18 207.8 1642.18 201.2C1653.38 194.6 1666.18 191.3 1680.58 191.3C1693.18 191.3 1703.78 193.4 1712.38 197.6C1720.98 201.6 1727.78 207.2 1732.78 214.4C1737.78 221.4 1741.38 229.6 1743.58 239C1745.98 248.4 1747.18 258.6 1747.18 269.6C1747.18 277.8 1745.98 286.5 1743.58 295.7C1741.18 304.7 1737.38 313.1 1732.18 320.9C1727.18 328.7 1720.38 335.1 1711.78 340.1C1703.38 344.9 1692.98 347.3 1680.58 347.3ZM1690.78 319.7C1701.98 319.7 1711.48 317.6 1719.28 313.4C1727.28 309 1733.28 303 1737.28 295.4C1741.48 287.8 1743.58 279.2 1743.58 269.6C1743.58 259 1741.48 250 1737.28 242.6C1733.08 235 1727.08 229.1 1719.28 224.9C1711.48 220.7 1701.98 218.6 1690.78 218.6C1674.78 218.6 1662.38 223.4 1653.58 233C1644.78 242.4 1640.38 254.6 1640.38 269.6C1640.38 279.4 1642.48 288.1 1646.68 295.7C1651.08 303.3 1657.08 309.2 1664.68 313.4C1672.28 317.6 1680.98 319.7 1690.78 319.7ZM1743.58 134.6H1777.18V344H1745.98C1745.58 339.4 1745.08 333.7 1744.48 326.9C1743.88 320.1 1743.58 314 1743.58 308.6V134.6Z" fill="white"/>
</svg>
