<svg width="25" height="25" viewBox="0 0 25 25" fill="none" xmlns="http://www.w3.org/2000/svg">
<rect width="25" height="25" rx="12.5" fill="#050629"/>
<path d="M20.7742 17.5575H21V16.5149C21 15.5021 20.2099 14.6681 19.2504 14.6681C18.4885 14.6681 17.8113 14.0723 17.6984 13.2979C17.6138 12.8213 17.7548 12.3447 18.037 11.9574C18.3192 11.6 18.7707 11.3915 19.2222 11.3915C20.2099 11.3915 21 10.5574 21 9.5149V8.47234H20.7742C19.2787 8.47234 17.9806 7.45957 17.5009 6H14.5379V9.42553C14.5379 10.2298 13.9735 10.9447 13.2399 11.0638C13.127 11.0936 13.0141 11.0936 12.9295 11.0936C12.1111 11.034 11.4621 10.3191 11.4621 9.45532V6H8.49912C8.0194 7.45957 6.72134 8.47234 5.22575 8.47234H5V9.5149C5 10.5277 5.79012 11.3617 6.74956 11.3617C7.51146 11.3617 8.18871 11.9574 8.30159 12.7319C8.38624 13.2085 8.24515 13.6851 7.96296 14.0723C7.68078 14.4298 7.22928 14.6383 6.77778 14.6383C5.79012 14.6383 5 15.4723 5 16.4851V17.5277H5.22575C6.72134 17.5277 8.0194 18.5404 8.49912 20H11.4621V16.5745C11.4621 15.7702 12.0265 15.0553 12.7601 14.9362C12.8448 14.9064 12.9577 14.9064 13.0423 14.9064C13.8889 14.966 14.5379 15.6809 14.5379 16.5447V20H17.5009C17.9524 18.5702 19.2787 17.5575 20.7742 17.5575Z" fill="url(#paint0_linear_11_14)"/>
<defs>
<linearGradient id="paint0_linear_11_14" x1="21" y1="11.5" x2="3" y2="11.5" gradientUnits="userSpaceOnUse">
<stop stop-color="#44F2A1"/>
<stop offset="0.701928" stop-color="#1835D9"/>
</linearGradient>
</defs>
</svg>
