<svg width="81" height="15" viewBox="0 0 81 15" fill="none" xmlns="http://www.w3.org/2000/svg">
<path d="M26.456 12V3.24H28.688V12H26.456ZM20.888 12V3.24H23.12V12H20.888ZM22.736 8.556V6.612H26.84V8.556H22.736ZM30.1742 14.64V12.816H31.6982C31.8822 12.816 32.0382 12.792 32.1662 12.744C32.2942 12.696 32.3982 12.616 32.4782 12.504C32.5582 12.4 32.6182 12.252 32.6582 12.06L34.1462 5.376H36.2102L34.4702 12.48C34.3422 13.024 34.1622 13.452 33.9302 13.764C33.7062 14.084 33.3942 14.308 32.9942 14.436C32.6022 14.572 32.0902 14.64 31.4582 14.64H30.1742ZM32.2742 11.856V10.176H33.6662V11.856H32.2742ZM31.2662 11.856L29.3342 5.376H31.5182L33.3302 11.856H31.2662ZM36.812 14.4V5.376H38.54V8.232H38.348C38.372 7.584 38.5 7.032 38.732 6.576C38.972 6.12 39.296 5.776 39.704 5.544C40.112 5.304 40.58 5.184 41.108 5.184C41.564 5.184 41.976 5.268 42.344 5.436C42.712 5.596 43.028 5.828 43.292 6.132C43.556 6.428 43.756 6.78 43.892 7.188C44.036 7.596 44.108 8.044 44.108 8.532V8.82C44.108 9.308 44.044 9.76 43.916 10.176C43.788 10.584 43.596 10.944 43.34 11.256C43.084 11.56 42.768 11.796 42.392 11.964C42.024 12.132 41.6 12.216 41.12 12.216C40.608 12.216 40.156 12.116 39.764 11.916C39.372 11.708 39.06 11.4 38.828 10.992C38.604 10.576 38.484 10.056 38.468 9.432L38.996 10.08V14.4H36.812ZM40.46 10.416C40.748 10.416 41 10.344 41.216 10.2C41.44 10.048 41.612 9.84 41.732 9.576C41.86 9.312 41.924 9.012 41.924 8.676C41.924 8.332 41.86 8.036 41.732 7.788C41.612 7.532 41.444 7.336 41.228 7.2C41.012 7.056 40.756 6.984 40.46 6.984C40.196 6.984 39.948 7.044 39.716 7.164C39.492 7.284 39.308 7.46 39.164 7.692C39.02 7.924 38.948 8.204 38.948 8.532V8.94C38.948 9.252 39.024 9.52 39.176 9.744C39.328 9.96 39.52 10.128 39.752 10.248C39.984 10.36 40.22 10.416 40.46 10.416ZM48.1761 12.24C47.6161 12.24 47.1201 12.144 46.6881 11.952C46.2561 11.76 45.8921 11.5 45.5961 11.172C45.3001 10.844 45.0721 10.476 44.9121 10.068C44.7601 9.66 44.6841 9.24 44.6841 8.808V8.568C44.6841 8.12 44.7601 7.692 44.9121 7.284C45.0721 6.868 45.2961 6.5 45.5841 6.18C45.8801 5.86 46.2401 5.608 46.6641 5.424C47.0881 5.232 47.5681 5.136 48.1041 5.136C48.8161 5.136 49.4201 5.296 49.9161 5.616C50.4121 5.936 50.7921 6.36 51.0561 6.888C51.3201 7.408 51.4521 7.976 51.4521 8.592V9.288H45.5961V8.112H50.1921L49.4361 8.64C49.4361 8.264 49.3841 7.948 49.2801 7.692C49.1841 7.428 49.0361 7.228 48.8361 7.092C48.6441 6.956 48.4001 6.888 48.1041 6.888C47.8161 6.888 47.5641 6.956 47.3481 7.092C47.1401 7.22 46.9801 7.42 46.8681 7.692C46.7561 7.956 46.7001 8.292 46.7001 8.7C46.7001 9.068 46.7521 9.388 46.8561 9.66C46.9601 9.924 47.1201 10.128 47.3361 10.272C47.5521 10.416 47.8321 10.488 48.1761 10.488C48.4801 10.488 48.7281 10.436 48.9201 10.332C49.1201 10.228 49.2601 10.088 49.3401 9.912H51.3321C51.2361 10.36 51.0441 10.76 50.7561 11.112C50.4761 11.464 50.1161 11.74 49.6761 11.94C49.2441 12.14 48.7441 12.24 48.1761 12.24ZM52.3633 12V5.376H54.0913V8.256H54.0673C54.0673 7.328 54.2593 6.6 54.6433 6.072C55.0353 5.544 55.5953 5.28 56.3233 5.28H56.5873V7.152H56.0833C55.5953 7.152 55.2153 7.284 54.9433 7.548C54.6793 7.812 54.5473 8.192 54.5473 8.688V12H52.3633ZM57.2092 12V5.376H58.9372V8.232H58.8412C58.8412 7.544 58.9252 6.976 59.0932 6.528C59.2692 6.072 59.5252 5.732 59.8612 5.508C60.1972 5.276 60.6092 5.16 61.0972 5.16H61.1932C61.6892 5.16 62.1012 5.276 62.4292 5.508C62.7652 5.732 63.0172 6.072 63.1852 6.528C63.3612 6.976 63.4492 7.544 63.4492 8.232H62.9452C62.9452 7.544 63.0292 6.976 63.1972 6.528C63.3732 6.072 63.6292 5.732 63.9652 5.508C64.3012 5.276 64.7132 5.16 65.2012 5.16H65.2972C65.7932 5.16 66.2092 5.276 66.5452 5.508C66.8892 5.732 67.1492 6.072 67.3252 6.528C67.5092 6.976 67.6012 7.544 67.6012 8.232V12H65.4172V8.172C65.4172 7.868 65.3332 7.616 65.1652 7.416C65.0052 7.208 64.7732 7.104 64.4692 7.104C64.1652 7.104 63.9252 7.208 63.7492 7.416C63.5812 7.616 63.4972 7.876 63.4972 8.196V12H61.3132V8.172C61.3132 7.868 61.2292 7.616 61.0612 7.416C60.9012 7.208 60.6692 7.104 60.3652 7.104C60.0612 7.104 59.8212 7.208 59.6452 7.416C59.4772 7.616 59.3932 7.876 59.3932 8.196V12H57.2092ZM69.1406 12V5.376H71.3246V12H69.1406ZM68.3006 6.96V5.376H71.3246V6.96H68.3006ZM70.0406 4.848C69.6406 4.848 69.3446 4.748 69.1526 4.548C68.9686 4.34 68.8766 4.076 68.8766 3.756C68.8766 3.436 68.9686 3.176 69.1526 2.976C69.3446 2.768 69.6366 2.664 70.0286 2.664C70.4286 2.664 70.7206 2.768 70.9046 2.976C71.0886 3.176 71.1806 3.436 71.1806 3.756C71.1806 4.076 71.0886 4.34 70.9046 4.548C70.7206 4.748 70.4326 4.848 70.0406 4.848ZM75.4141 12.216C74.9501 12.216 74.5261 12.132 74.1421 11.964C73.7661 11.796 73.4381 11.564 73.1581 11.268C72.8861 10.964 72.6741 10.608 72.5221 10.2C72.3781 9.792 72.3061 9.348 72.3061 8.868V8.58C72.3061 8.1 72.3741 7.656 72.5101 7.248C72.6541 6.832 72.8581 6.472 73.1221 6.168C73.3861 5.856 73.7061 5.616 74.0821 5.448C74.4581 5.272 74.8781 5.184 75.3421 5.184C75.8781 5.184 76.3341 5.304 76.7101 5.544C77.0941 5.776 77.3861 6.116 77.5861 6.564C77.7941 7.012 77.9061 7.556 77.9221 8.196L77.4181 7.824V3.24H79.6021V12H77.8741V9.312H78.1141C78.0981 9.904 77.9781 10.42 77.7541 10.86C77.5301 11.292 77.2181 11.628 76.8181 11.868C76.4261 12.1 75.9581 12.216 75.4141 12.216ZM76.0021 10.416C76.2661 10.416 76.5061 10.356 76.7221 10.236C76.9461 10.116 77.1261 9.94 77.2621 9.708C77.3981 9.476 77.4661 9.196 77.4661 8.868V8.46C77.4661 8.14 77.3941 7.872 77.2501 7.656C77.1141 7.44 76.9341 7.276 76.7101 7.164C76.4941 7.044 76.2581 6.984 76.0021 6.984C75.7141 6.984 75.4541 7.06 75.2221 7.212C74.9981 7.356 74.8181 7.56 74.6821 7.824C74.5541 8.08 74.4901 8.38 74.4901 8.724C74.4901 9.068 74.5541 9.368 74.6821 9.624C74.8181 9.872 74.9981 10.068 75.2221 10.212C75.4541 10.348 75.7141 10.416 76.0021 10.416Z" fill="#44F2A1"/>
<path d="M15.7742 11.5575H16V10.5149C16 9.50213 15.2099 8.66809 14.2504 8.66809C13.4885 8.66809 12.8113 8.07234 12.6984 7.29787C12.6138 6.82127 12.7548 6.34468 13.037 5.95745C13.3192 5.6 13.7707 5.39149 14.2222 5.39149C15.2099 5.39149 16 4.55745 16 3.5149V2.47234H15.7742C14.2787 2.47234 12.9806 1.45957 12.5009 0H9.53792V3.42553C9.53792 4.22979 8.97354 4.94468 8.23986 5.06383C8.12698 5.09362 8.01411 5.09362 7.92945 5.09362C7.11111 5.03404 6.46208 4.31915 6.46208 3.45532V0H3.49912C3.0194 1.45957 1.72134 2.47234 0.22575 2.47234H0V3.5149C0 4.52766 0.790123 5.3617 1.74956 5.3617C2.51146 5.3617 3.18871 5.95745 3.30159 6.73191C3.38624 7.20851 3.24515 7.68511 2.96296 8.07234C2.68078 8.42979 2.22928 8.6383 1.77778 8.6383C0.790124 8.6383 0 9.47234 0 10.4851V11.5277H0.22575C1.72134 11.5277 3.0194 12.5404 3.49912 14H6.46208V10.5745C6.46208 9.77021 7.02646 9.05532 7.76014 8.93617C7.8448 8.90638 7.95767 8.90639 8.04233 8.90639C8.88889 8.96596 9.53792 9.68086 9.53792 10.5447V14H12.5009C12.9524 12.5702 14.2787 11.5575 15.7742 11.5575Z" fill="#44F2A1"/>
</svg>
